<svg xmlns="http://www.w3.org/2000/svg" xmlns:xlink="http://www.w3.org/1999/xlink" version="1.1" data-diagram-type="CHEN_EER" style="width:4974px;height:418px;background:#FFFFFF;" width="4974px" height="418px" viewBox="0 0 4974 418" zoomAndPan="magnify" preserveAspectRatio="none" contentStyleType="text/css"><?plantuml 1.2026.8?><defs/><g font-family="sans-serif" lengthAdjust="spacing"><g class="title" data-source-line="2"><text x="2382.88" y="22.995" fill="#000" font-size="14" textLength="201.961" font-weight="700">Conceptual ERD — money</text></g><g><rect x="311.93" y="368.677" width="77.504" height="36.297" fill="#F1F1F1" style="stroke:#181818;stroke-width:0.5;"/><text x="321.93" y="391.672" fill="#000" font-size="14" textLength="57.504">READER</text></g><g><ellipse cx="53.683" cy="286.831" rx="47.683" ry="14.524" fill="#F1F1F1" style="stroke:#181818;stroke-width:0.5;"/><text x="22.087" y="291.302" fill="#000" font-size="14" textLength="63.191" text-decoration="underline">ReaderId</text></g><g><ellipse cx="185.685" cy="286.831" rx="49.675" ry="14.524" fill="#F1F1F1" style="stroke:#181818;stroke-width:0.5;"/><text x="152.681" y="291.302" fill="#000" font-size="14" textLength="66.008">FullName</text></g><g><ellipse cx="300.675" cy="286.831" rx="30.465" ry="14.524" fill="#F1F1F1" style="stroke:#181818;stroke-width:0.5;"/><text x="281.254" y="291.302" fill="#000" font-size="14" textLength="38.842">Email</text></g><g><ellipse cx="399.675" cy="286.831" rx="33.665" ry="14.524" fill="#F1F1F1" style="stroke:#181818;stroke-width:0.5;"/><text x="377.992" y="291.302" fill="#000" font-size="14" textLength="43.367">Phone</text></g><g><ellipse cx="533.679" cy="286.827" rx="65.499" ry="15.5" fill="#F1F1F1" style="stroke:#181818;stroke-width:0.5;"/><text x="486.285" y="290.322" fill="#000" font-size="14" textLength="94.787">ReaderStatus</text></g><g><rect x="3363.95" y="368.677" width="99.475" height="36.297" fill="#F1F1F1" style="stroke:#181818;stroke-width:0.5;"/><text x="3373.95" y="391.672" fill="#000" font-size="14" textLength="79.475">LOAN_ITEM</text></g><g><ellipse cx="2990.681" cy="286.831" rx="58.651" ry="14.524" fill="#F1F1F1" style="stroke:#181818;stroke-width:0.5;"/><text x="2951.33" y="291.302" fill="#000" font-size="14" textLength="78.702" text-decoration="underline">LoanItemId</text></g><g><ellipse cx="3117.681" cy="286.831" rx="33.641" ry="14.524" fill="#F1F1F1" style="stroke:#181818;stroke-width:0.5;"/><text x="3096.015" y="291.302" fill="#000" font-size="14" textLength="43.333">DueAt</text></g><g><ellipse cx="3245.677" cy="286.831" rx="59.497" ry="14.524" fill="#F1F1F1" style="stroke:#181818;stroke-width:0.5;"/><text x="3205.728" y="291.302" fill="#000" font-size="14" textLength="79.898">ReturnedAt</text></g><g><ellipse cx="3413.681" cy="286.831" rx="73.121" ry="17.024" fill="#F1F1F1" style="stroke:#181818;stroke-width:0.5;"/><text x="3356.611" y="288.802" fill="#000" font-size="14" textLength="114.14">ReturnCondition</text></g><g><ellipse cx="3591.679" cy="286.829" rx="70.259" ry="16.452" fill="#F1F1F1" style="stroke:#181818;stroke-width:0.5;"/><text x="3538.164" y="289.372" fill="#000" font-size="14" textLength="107.03">LostDeclaredAt</text></g><g><ellipse cx="3753.68" cy="286.831" rx="57.08" ry="14.524" fill="#F1F1F1" style="stroke:#181818;stroke-width:0.5;"/><text x="3715.44" y="291.302" fill="#000" font-size="14" textLength="76.48">ItemStatus</text></g><g><ellipse cx="3913.681" cy="286.829" rx="68.011" ry="16.002" fill="#F1F1F1" style="stroke:#181818;stroke-width:0.5;"/><text x="3863.02" y="289.822" fill="#000" font-size="14" textLength="101.322">RenewalCount</text></g><g><ellipse cx="4108.684" cy="286.83" rx="92.264" ry="20.853" fill="#F1F1F1" style="stroke:#181818;stroke-width:0.5;"/><text x="4029.26" y="284.972" fill="#000" font-size="14" textLength="158.847">AppliedPolicySnapshot</text></g><g><rect x="2313.93" y="368.677" width="51.5" height="36.297" fill="#F1F1F1" style="stroke:#181818;stroke-width:0.5;"/><text x="2323.93" y="391.672" fill="#000" font-size="14" textLength="31.5">FINE</text></g><g><ellipse cx="2436.683" cy="286.831" rx="33.013" ry="14.524" fill="#F1F1F1" style="stroke:#181818;stroke-width:0.5;"/><text x="2415.461" y="291.302" fill="#000" font-size="14" textLength="42.444" text-decoration="underline">FineId</text></g><g><ellipse cx="2552.679" cy="286.831" rx="48.089" ry="14.524" fill="#F1F1F1" style="stroke:#181818;stroke-width:0.5;"/><text x="2520.796" y="291.302" fill="#000" font-size="14" textLength="63.766">FineType</text></g><g><ellipse cx="1703.677" cy="286.83" rx="69.917" ry="16.383" fill="#F1F1F1" style="stroke:#181818;stroke-width:0.5;"/><text x="1650.593" y="289.442" fill="#000" font-size="14" textLength="106.169">DefaultAmount</text></g><g><ellipse cx="1883.676" cy="286.822" rx="75.476" ry="17.495" fill="#F1F1F1" style="stroke:#181818;stroke-width:0.5;"/><text x="1823.736" y="288.322" fill="#000" font-size="14" textLength="119.882">AssessedAmount</text></g><g><ellipse cx="2054.683" cy="286.831" rx="60.333" ry="14.524" fill="#F1F1F1" style="stroke:#181818;stroke-width:0.5;"/><text x="2014.142" y="291.302" fill="#000" font-size="14" textLength="81.081">FineReason</text></g><g><ellipse cx="2209.681" cy="286.831" rx="59.521" ry="14.524" fill="#F1F1F1" style="stroke:#181818;stroke-width:0.5;"/><text x="2169.715" y="291.302" fill="#000" font-size="14" textLength="79.933">AssessedAt</text></g><g><rect x="4571.37" y="368.677" width="150.621" height="36.297" fill="#F1F1F1" style="stroke:#181818;stroke-width:0.5;"/><text x="4581.37" y="391.672" fill="#000" font-size="14" textLength="130.621">FINE_ADJUSTMENT</text></g><g><ellipse cx="4646.684" cy="286.83" rx="65.064" ry="15.413" fill="#F1F1F1" style="stroke:#181818;stroke-width:0.5;"/><text x="4599.865" y="290.412" fill="#000" font-size="14" textLength="93.639" text-decoration="underline">AdjustmentId</text></g><g><ellipse cx="4815.677" cy="286.824" rx="68.687" ry="16.137" fill="#F1F1F1" style="stroke:#181818;stroke-width:0.5;"/><text x="4764.152" y="289.682" fill="#000" font-size="14" textLength="103.052">SignedAmount</text></g><g><ellipse cx="4316.68" cy="286.823" rx="80.68" ry="18.536" fill="#F1F1F1" style="stroke:#181818;stroke-width:0.5;"/><text x="4250.542" y="287.282" fill="#000" font-size="14" textLength="132.275">AdjustmentReason</text></g><g><ellipse cx="4489.678" cy="286.831" rx="57.148" ry="14.524" fill="#F1F1F1" style="stroke:#181818;stroke-width:0.5;"/><text x="4451.389" y="291.302" fill="#000" font-size="14" textLength="76.576">AdjustedAt</text></g><g><rect x="1080.42" y="368.677" width="86.521" height="36.297" fill="#F1F1F1" style="stroke:#181818;stroke-width:0.5;"/><text x="1090.42" y="391.672" fill="#000" font-size="14" textLength="66.521">PAYMENT</text></g><g><ellipse cx="1248.682" cy="286.829" rx="61.362" ry="14.672" fill="#F1F1F1" style="stroke:#181818;stroke-width:0.5;"/><text x="1206.894" y="291.152" fill="#000" font-size="14" textLength="83.576" text-decoration="underline">RequestKey</text></g><g><ellipse cx="1419.683" cy="286.829" rx="74.263" ry="17.253" fill="#F1F1F1" style="stroke:#181818;stroke-width:0.5;"/><text x="1361.215" y="288.572" fill="#000" font-size="14" textLength="116.936">PaymentAmount</text></g><g><ellipse cx="1563.684" cy="286.831" rx="34.724" ry="14.524" fill="#F1F1F1" style="stroke:#181818;stroke-width:0.5;"/><text x="1541.252" y="291.302" fill="#000" font-size="14" textLength="44.864">PaidAt</text></g><g><ellipse cx="772.678" cy="286.831" rx="40.128" ry="14.524" fill="#F1F1F1" style="stroke:#181818;stroke-width:0.5;"/><text x="746.425" y="291.302" fill="#000" font-size="14" textLength="52.507">Method</text></g><g><ellipse cx="901.683" cy="286.831" rx="53.513" ry="14.524" fill="#F1F1F1" style="stroke:#181818;stroke-width:0.5;"/><text x="865.965" y="291.302" fill="#000" font-size="14" textLength="71.436">Reference</text></g><g><polygon points="2665.59,172.155,2719.686,145.107,2773.783,172.155,2719.686,199.203" fill="#F1F1F1" style="stroke:#181818;stroke-width:0.5;stroke-linejoin:miter;stroke-miterlimit:10;"/><text x="2693.067" y="177.002" fill="#000" font-size="14" textLength="53.238">INCURS</text></g><g><polygon points="3849.05,172.163,3914.682,139.347,3980.314,172.163,3914.682,204.979" fill="#F1F1F1" style="stroke:#181818;stroke-width:0.5;stroke-linejoin:miter;stroke-miterlimit:10;"/><text x="3876.527" y="177.01" fill="#000" font-size="14" textLength="76.31">CORRECTS</text></g><g><polygon points="881.48,172.16,926.686,149.557,971.892,172.16,926.686,194.763" fill="#F1F1F1" style="stroke:#181818;stroke-width:0.5;stroke-linejoin:miter;stroke-miterlimit:10;"/><text x="908.957" y="177.007" fill="#000" font-size="14" textLength="35.458">PAYS</text></g><g><polygon points="1165.02,172.158,1222.681,143.327,1280.343,172.158,1222.681,200.988" fill="#F1F1F1" style="stroke:#181818;stroke-width:0.5;stroke-linejoin:miter;stroke-miterlimit:10;"/><text x="1192.497" y="177.004" fill="#000" font-size="14" textLength="60.368">SETTLES</text></g><g><ellipse cx="1222.679" cy="60.819" rx="75.609" ry="17.522" fill="#F1F1F1" style="stroke:#181818;stroke-width:0.5;"/><text x="1162.578" y="62.292" fill="#000" font-size="14" textLength="120.203">AllocatedAmount</text></g><!--link READER/ReaderId to READER--><g class="link" data-entity-1="ent0002" data-entity-2="ent0001" id="lnk3" data-source-line="4" data-link-type="association"><path d="M84.91,298.127 C139.42,316.117 251.81,353.207 311.47,372.887" style="stroke:#181818;stroke-width:1;" fill="none" id="READER/ReaderId-READER"/></g><!--link READER/FullName to READER--><g class="link" data-entity-1="ent0004" data-entity-2="ent0001" id="lnk5" data-source-line="5" data-link-type="association"><path d="M206.92,300.437 C235.99,317.707 288.31,348.787 321.18,368.307" style="stroke:#181818;stroke-width:1;" fill="none" id="READER/FullName-READER"/></g><!--link READER/Email to READER--><g class="link" data-entity-1="ent0006" data-entity-2="ent0001" id="lnk7" data-source-line="6" data-link-type="association"><path d="M307.64,301.457 C316.54,318.917 332,349.207 341.77,368.347" style="stroke:#181818;stroke-width:1;" fill="none" id="READER/Email-READER"/></g><!--link READER/Phone to READER--><g class="link" data-entity-1="ent0008" data-entity-2="ent0001" id="lnk9" data-source-line="7" data-link-type="association"><path d="M392.87,301.457 C384.14,318.917 368.99,349.207 359.42,368.347" style="stroke:#181818;stroke-width:1;" fill="none" id="READER/Phone-READER"/></g><!--link READER/ReaderStatus to READER--><g class="link" data-entity-1="ent0010" data-entity-2="ent0001" id="lnk11" data-source-line="8" data-link-type="association"><path d="M508.24,301.457 C475.63,318.917 419.06,349.207 383.32,368.347" style="stroke:#181818;stroke-width:1;" fill="none" id="READER/ReaderStatus-READER"/></g><!--link LOAN_ITEM/LoanItemId to LOAN_ITEM--><g class="link" data-entity-1="ent0013" data-entity-2="ent0012" id="lnk14" data-source-line="11" data-link-type="association"><path d="M3029.28,298.177 C3041.25,301.317 3054.49,304.717 3066.68,307.677 C3171.99,333.287 3295.99,360.507 3363.57,375.097" style="stroke:#181818;stroke-width:1;" fill="none" id="LOAN_ITEM/LoanItemId-LOAN_ITEM"/></g><!--link LOAN_ITEM/DueAt to LOAN_ITEM--><g class="link" data-entity-1="ent0015" data-entity-2="ent0012" id="lnk16" data-source-line="12" data-link-type="association"><path d="M3141.44,297.427 C3149.98,300.787 3159.73,304.507 3168.68,307.677 C3235.61,331.357 3313.91,355.767 3363.64,370.867" style="stroke:#181818;stroke-width:1;" fill="none" id="LOAN_ITEM/DueAt-LOAN_ITEM"/></g><!--link LOAN_ITEM/ReturnedAt to LOAN_ITEM--><g class="link" data-entity-1="ent0017" data-entity-2="ent0012" id="lnk18" data-source-line="13" data-link-type="association"><path d="M3267.65,300.637 C3297.26,317.917 3350.13,348.757 3383.48,368.207" style="stroke:#181818;stroke-width:1;" fill="none" id="LOAN_ITEM/ReturnedAt-LOAN_ITEM"/></g><!--link LOAN_ITEM/ReturnCondition to LOAN_ITEM--><g class="link" data-entity-1="ent0019" data-entity-2="ent0012" id="lnk20" data-source-line="14" data-link-type="association"><path d="M3413.68,304.007 C3413.68,321.737 3413.68,350.057 3413.68,368.297" style="stroke:#181818;stroke-width:1;" fill="none" id="LOAN_ITEM/ReturnCondition-LOAN_ITEM"/></g><!--link LOAN_ITEM/LostDeclaredAt to LOAN_ITEM--><g class="link" data-entity-1="ent0021" data-entity-2="ent0012" id="lnk22" data-source-line="15" data-link-type="association"><path d="M3565.03,302.497 C3533.13,320.067 3479.73,349.467 3445.64,368.237" style="stroke:#181818;stroke-width:1;" fill="none" id="LOAN_ITEM/LostDeclaredAt-LOAN_ITEM"/></g><!--link LOAN_ITEM/ItemStatus to LOAN_ITEM--><g class="link" data-entity-1="ent0023" data-entity-2="ent0012" id="lnk24" data-source-line="16" data-link-type="association"><path d="M3717.3,298.317 C3656.23,315.917 3533,351.437 3463.79,371.387" style="stroke:#181818;stroke-width:1;" fill="none" id="LOAN_ITEM/ItemStatus-LOAN_ITEM"/></g><!--link LOAN_ITEM/RenewalCount to LOAN_ITEM--><g class="link" data-entity-1="ent0025" data-entity-2="ent0012" id="lnk26" data-source-line="17" data-link-type="association"><path d="M3867.89,298.907 C3855.21,301.867 3841.44,304.987 3828.68,307.677 C3697.4,335.357 3541.75,363.397 3463.65,377.137" style="stroke:#181818;stroke-width:1;" fill="none" id="LOAN_ITEM/RenewalCount-LOAN_ITEM"/></g><!--link LOAN_ITEM/AppliedPolicySnapshot to LOAN_ITEM--><g class="link" data-entity-1="ent0027" data-entity-2="ent0012" id="lnk28" data-source-line="18" data-link-type="association"><path d="M4039.28,300.977 C4026.15,303.327 4012.51,305.657 3999.68,307.677 C3801.73,338.887 3564.85,367.947 3463.58,379.987" style="stroke:#181818;stroke-width:1;" fill="none" id="LOAN_ITEM/AppliedPolicySnapshot-LOAN_ITEM"/></g><!--link FINE/FineId to FINE--><g class="link" data-entity-1="ent0030" data-entity-2="ent0029" id="lnk31" data-source-line="21" data-link-type="association"><path d="M2424,300.637 C2406.85,317.967 2376.19,348.937 2356.95,368.387" style="stroke:#181818;stroke-width:1;" fill="none" id="FINE/FineId-FINE"/></g><!--link FINE/FineType to FINE--><g class="link" data-entity-1="ent0032" data-entity-2="ent0029" id="lnk33" data-source-line="22" data-link-type="association"><path d="M2527.41,299.457 C2486.75,318.167 2407.19,354.767 2365.92,373.757" style="stroke:#181818;stroke-width:1;" fill="none" id="FINE/FineType-FINE"/></g><!--link FINE/DefaultAmount to FINE--><g class="link" data-entity-1="ent0034" data-entity-2="ent0029" id="lnk35" data-source-line="23" data-link-type="association"><path d="M1750.49,299.257 C1763.46,302.217 1777.58,305.257 1790.68,307.677 C1990.67,344.667 2234.44,373.827 2313.55,382.887" style="stroke:#181818;stroke-width:1;" fill="none" id="FINE/DefaultAmount-FINE"/></g><!--link FINE/AssessedAmount to FINE--><g class="link" data-entity-1="ent0036" data-entity-2="ent0029" id="lnk37" data-source-line="24" data-link-type="association"><path d="M1937.78,299.457 C2036.16,320.597 2240.88,364.597 2313.47,380.197" style="stroke:#181818;stroke-width:1;" fill="none" id="FINE/AssessedAmount-FINE"/></g><!--link FINE/FineReason to FINE--><g class="link" data-entity-1="ent0038" data-entity-2="ent0029" id="lnk39" data-source-line="25" data-link-type="association"><path d="M2088.21,299.357 C2145.75,319.137 2262.06,359.137 2313.83,376.937" style="stroke:#181818;stroke-width:1;" fill="none" id="FINE/FineReason-FINE"/></g><!--link FINE/AssessedAt to FINE--><g class="link" data-entity-1="ent0040" data-entity-2="ent0029" id="lnk41" data-source-line="26" data-link-type="association"><path d="M2227.22,301.047 C2250.22,318.387 2290.68,348.887 2316.29,368.187" style="stroke:#181818;stroke-width:1;" fill="none" id="FINE/AssessedAt-FINE"/></g><!--link FINE_ADJUSTMENT/AdjustmentId to FINE_ADJUSTMENT--><g class="link" data-entity-1="ent0043" data-entity-2="ent0042" id="lnk44" data-source-line="29" data-link-type="association"><path d="M4646.68,302.707 C4646.68,320.377 4646.68,349.807 4646.68,368.487" style="stroke:#181818;stroke-width:1;" fill="none" id="FINE_ADJUSTMENT/AdjustmentId-FINE_ADJUSTMENT"/></g><!--link FINE_ADJUSTMENT/SignedAmount to FINE_ADJUSTMENT--><g class="link" data-entity-1="ent0045" data-entity-2="ent0042" id="lnk46" data-source-line="30" data-link-type="association"><path d="M4790.75,302.287 C4760.45,319.857 4709.36,349.487 4676.87,368.327" style="stroke:#181818;stroke-width:1;" fill="none" id="FINE_ADJUSTMENT/SignedAmount-FINE_ADJUSTMENT"/></g><!--link FINE_ADJUSTMENT/AdjustmentReason to FINE_ADJUSTMENT--><g class="link" data-entity-1="ent0047" data-entity-2="ent0042" id="lnk48" data-source-line="31" data-link-type="association"><path d="M4364.67,302.077 C4423.66,319.597 4523.76,349.327 4587.47,368.247" style="stroke:#181818;stroke-width:1;" fill="none" id="FINE_ADJUSTMENT/AdjustmentReason-FINE_ADJUSTMENT"/></g><!--link FINE_ADJUSTMENT/AdjustedAt to FINE_ADJUSTMENT--><g class="link" data-entity-1="ent0049" data-entity-2="ent0042" id="lnk50" data-source-line="32" data-link-type="association"><path d="M4510.21,300.637 C4537.89,317.917 4587.29,348.757 4618.45,368.207" style="stroke:#181818;stroke-width:1;" fill="none" id="FINE_ADJUSTMENT/AdjustedAt-FINE_ADJUSTMENT"/></g><!--link PAYMENT/RequestKey to PAYMENT--><g class="link" data-entity-1="ent0052" data-entity-2="ent0051" id="lnk53" data-source-line="35" data-link-type="association"><path d="M1231.56,301.247 C1209.37,318.657 1170.59,349.047 1146.08,368.267" style="stroke:#181818;stroke-width:1;" fill="none" id="PAYMENT/RequestKey-PAYMENT"/></g><!--link PAYMENT/PaymentAmount to PAYMENT--><g class="link" data-entity-1="ent0054" data-entity-2="ent0051" id="lnk55" data-source-line="36" data-link-type="association"><path d="M1378.21,301.557 C1322.53,319.997 1224.03,352.607 1167.28,371.397" style="stroke:#181818;stroke-width:1;" fill="none" id="PAYMENT/PaymentAmount-PAYMENT"/></g><!--link PAYMENT/PaidAt to PAYMENT--><g class="link" data-entity-1="ent0056" data-entity-2="ent0051" id="lnk57" data-source-line="37" data-link-type="association"><path d="M1539.89,297.867 C1531.13,301.307 1521.06,304.967 1511.68,307.677 C1388.91,343.217 1239.72,368.367 1167.31,379.467" style="stroke:#181818;stroke-width:1;" fill="none" id="PAYMENT/PaidAt-PAYMENT"/></g><!--link PAYMENT/Method to PAYMENT--><g class="link" data-entity-1="ent0058" data-entity-2="ent0051" id="lnk59" data-source-line="38" data-link-type="association"><path d="M800.29,297.707 C809.87,301.027 820.7,304.647 830.68,307.677 C918.58,334.407 1022.78,361.007 1080.23,375.237" style="stroke:#181818;stroke-width:1;" fill="none" id="PAYMENT/Method-PAYMENT"/></g><!--link PAYMENT/Reference to PAYMENT--><g class="link" data-entity-1="ent0060" data-entity-2="ent0051" id="lnk61" data-source-line="39" data-link-type="association"><path d="M923.9,300.287 C943.53,311.077 973.09,326.777 999.68,338.677 C1025.96,350.447 1056.14,361.967 1080.14,370.667" style="stroke:#181818;stroke-width:1;" fill="none" id="PAYMENT/Reference-PAYMENT"/></g><!--link INCURS to FINE--><g class="link" data-entity-1="ent0062" data-entity-2="ent0029" id="lnk63" data-source-line="43" data-link-type="association"><path d="M2709.35,194.587 C2693.84,224.457 2661.71,278.247 2618.68,307.677 C2537.72,363.057 2418.22,379.417 2365.87,384.067" style="stroke:#181818;stroke-width:1;" fill="none" id="INCURS-FINE"/><text x="2663.14" y="291.037" fill="#000" font-size="11" textLength="26.077">(1,1)</text></g><!--link INCURS to LOAN_ITEM--><g class="link" data-entity-1="ent0062" data-entity-2="ent0012" id="lnk64" data-source-line="44" data-link-type="association"><path d="M2725.83,196.647 C2735.26,227.657 2756.48,281.367 2795.68,307.677 C2888.39,369.907 3233.65,382.597 3363.7,385.177" style="stroke:#181818;stroke-width:1;" fill="none" id="INCURS-LOAN_ITEM"/><text x="2796.68" y="291.037" fill="#000" font-size="11" textLength="27.307">(0,N)</text></g><!--link CORRECTS to FINE_ADJUSTMENT--><g class="link" data-entity-1="ent0065" data-entity-2="ent0042" id="lnk66" data-source-line="47" data-link-type="association"><path d="M3977.01,174.257 C4184.05,178.557 4839.33,197.487 4901.68,265.977 C4959.72,329.727 4816.97,362.507 4722.4,376.747" style="stroke:#181818;stroke-width:1;" fill="none" id="CORRECTS-FINE_ADJUSTMENT"/><text x="4916.14" y="291.037" fill="#000" font-size="11" textLength="26.077">(1,1)</text></g><!--link CORRECTS to FINE--><g class="link" data-entity-1="ent0065" data-entity-2="ent0029" id="lnk67" data-source-line="48" data-link-type="association"><path d="M3852.81,174.417 C3658.77,179.037 3064.52,198.497 2885.68,265.977 C2856.31,277.057 2857.66,295.597 2828.68,307.677 C2662.44,376.997 2440.8,385.197 2365.77,385.887" style="stroke:#181818;stroke-width:1;" fill="none" id="CORRECTS-FINE"/><text x="2886.68" y="291.037" fill="#000" font-size="11" textLength="27.307">(0,N)</text></g><!--link PAYS to PAYMENT--><g class="link" data-entity-1="ent0068" data-entity-2="ent0051" id="lnk69" data-source-line="51" data-link-type="association"><path d="M940.54,188.117 C975.92,226.307 1069.49,327.327 1107.4,368.247" style="stroke:#181818;stroke-width:1;" fill="none" id="PAYS-PAYMENT"/><text x="1052.17" y="291.037" fill="#000" font-size="11" textLength="26.077">(1,1)</text></g><!--link PAYS to READER--><g class="link" data-entity-1="ent0068" data-entity-2="ent0001" id="lnk70" data-source-line="52" data-link-type="association"><path d="M900.01,181.707 C854.86,196.557 760.97,229.077 685.68,265.977 C653.51,281.747 649.48,293.247 616.68,307.677 C539.15,341.817 442.5,365.947 389.66,377.707" style="stroke:#181818;stroke-width:1;" fill="none" id="PAYS-READER"/><text x="686.68" y="291.037" fill="#000" font-size="11" textLength="27.307">(0,N)</text></g><!--link SETTLES/AllocatedAmount to SETTLES--><g class="link" data-entity-1="ent0072" data-entity-2="ent0071" id="lnk73" data-source-line="54" data-link-type="association"><path d="M1222.68,78.427 C1222.68,95.517 1222.68,122.447 1222.68,142.897" style="stroke:#181818;stroke-width:1;" fill="none" id="SETTLES/AllocatedAmount-SETTLES"/></g><!--link SETTLES to PAYMENT--><g class="link" data-entity-1="ent0071" data-entity-2="ent0051" id="lnk74" data-source-line="56" data-link-type="association"><path d="M1201.35,190.637 C1182.11,207.717 1154.73,235.517 1140.68,265.977 C1125.1,299.757 1122.94,344.117 1123.09,368.277" style="stroke:#181818;stroke-width:1;" fill="none" id="SETTLES-PAYMENT"/><text x="1141.68" y="291.037" fill="#000" font-size="11" textLength="27.307">(1,N)</text></g><!--link SETTLES to FINE--><g class="link" data-entity-1="ent0071" data-entity-2="ent0029" id="lnk75" data-source-line="57" data-link-type="association"><path d="M1276.36,174.667 C1480.86,180.867 2203.91,206.797 2286.68,265.977 C2320.74,290.327 2333.22,341.587 2337.55,368.497" style="stroke:#181818;stroke-width:1;" fill="none" id="SETTLES-FINE"/><text x="2320.03" y="291.037" fill="#000" font-size="11" textLength="27.307">(0,N)</text></g><?plantuml-src xPFDZfim4CVlF8LlRQLDThE7geVLAYWuLTg4HS0UUbgvU5BS6flYeIjKHTg7w1FsIMfC-DfxRv6Gi6V-yviFcBL1Lc6MWoA5Lj1uRyX76jBOJsb0lZR4P9KeqLn3nQzRrUANW6UpH4EEbIu8rzdPfrK69TPCBikwaEJlon_h94eZ0IvmwQ502MGpo0YD0wVgqeAoWeR4r0zeJ7vxXCJ0E5GxJkxkVa1pVszDsrhAa1LWZxHWGjftbDlmGPqWmzfufnwtV_33frrA3uwurqpj48ePCwZ1HmV0kbB09nTRh2rTQELY3GQGILQT9ItedAxLAtXcSgDhrVhyifG2UAIbo9f4iTBa6iUgjhkGkeAsGi6yGMj8cx9jA80ZgoNwHSyq1kp31qEhjLqRLzxWVPNcoGy-FIRfWOQfo-ZpxxN1mYfcUHFnJKtGesfCu4pp197_PG37yBC6Wv-XcM0ZrhIGWHinqGtl09XhxiAEK87z9oor0idQQPjSb6GNRXxZnA9FtlcuUBkwMhrRkBP6syrLQ6t3Tvv3DWznJ3TfXnakKz1aFbD1HtMPPa3RSGTpXnvqdaDlx8AxFtaUdj0qtTEa-n9IwepXCFMJrtjRR3Z1ZlP9MMjGlDr7prk_tk3BfbqsxR9f_s7JLilRczltom__0000?></g></svg>